<svg width="142" height="59" viewBox="0 0 142 59" fill="none" xmlns="http://www.w3.org/2000/svg">
<g clip-path="url(#clip0_2028_358)">
<path d="M20.3814 43.6826C20.3858 44.3083 20.3947 44.8586 20.3992 45.3422C20.4036 44.6101 20.3992 44.0154 20.3814 43.6826Z" fill="#00AEFF"/>
<path d="M48.5995 33.383C48.4175 32.3579 47.8762 31.3329 47.3304 30.5474C46.9709 30.0637 46.1012 28.8212 45.5154 28.342C42.6665 26.0123 40.2037 25.2535 39.4494 25.1115C39.4494 25.1115 34.2486 23.9267 28.9635 23.7581C28.9369 21.7789 28.9192 19.3605 28.9192 17.1329C28.857 9.58468 28.7993 8.98118 28.5553 8.73711L28.3733 8.55518H26.0215C24.7523 8.55518 22.9418 8.6173 22.0366 8.6173C20.4036 8.67943 20.3459 8.67943 20.2261 8.86136C20.0442 8.98118 20.0442 9.03886 19.982 10.6719C19.9243 12.4202 20.0442 18.8236 20.164 23.6516C20.164 23.9888 20.1684 24.5169 20.1728 25.1869C20.1728 25.3289 20.1728 25.4798 20.1728 25.6307C20.2039 27.3125 20.337 32.815 20.337 37.8516C20.3548 40.3055 20.3637 42.2092 20.377 43.6824C20.3947 44.0152 20.3992 44.6099 20.3947 45.3421C20.3992 45.4707 20.3992 45.6083 20.3992 45.7459C20.4347 48.2841 20.4923 48.7634 20.6388 49.0207C20.7586 49.3225 21.1846 49.6242 21.4242 49.6864C21.5085 49.6864 22.0188 49.713 22.7022 49.7307C22.7244 49.7307 22.751 49.7307 22.7732 49.7307C23.0661 49.7396 23.3856 49.744 23.7184 49.744C24.8677 49.8062 27.7654 49.8062 30.1794 49.8062C34.2264 49.8062 34.7678 49.8062 35.9748 49.6242C36.6981 49.5666 37.306 49.5044 37.3637 49.5044C37.3637 49.4423 37.8474 49.3846 38.3932 49.3225C39.476 49.2027 40.8649 48.9631 41.7702 48.6613C43.6428 47.9957 46.181 46.4869 47.0863 45.3376C47.8717 44.4324 48.595 42.684 48.777 41.1131C49.1985 38.3352 49.1364 35.4952 48.595 33.383H48.5995ZM39.8443 39.0009C39.2408 40.2656 37.8519 40.8114 34.4705 41.051C33.685 41.1131 32.66 41.1708 32.1763 41.2329C31.6926 41.2329 30.7297 41.2951 30.064 41.2951H29.1011V35.726C29.1011 34.2616 29.0878 32.6197 29.07 31.1332C30.2282 31.0533 33.8137 31.2264 35.5577 31.4527C37.1862 31.6923 38.5175 32.4156 39.2408 33.5028C39.7822 34.2882 40.0262 35.1358 40.146 36.7022C40.2659 37.8516 40.2082 38.3974 39.8443 39.0009Z" fill="#00AEFF"/>
<path d="M64.5612 49.3895C64.5612 49.8555 63.9887 50.2104 63.5272 50.206C62.7729 50.2016 62.1072 50.1883 61.7922 50.1661C60.8914 50.0729 60.066 49.8998 59.1075 49.6291C58.8501 49.5537 58.575 49.4694 58.291 49.3806C56.7201 48.8348 56.1166 48.5952 55.1492 47.9296C53.3387 46.7226 52.1317 45.0319 51.4084 42.7377C51.1644 41.9523 50.8626 40.3858 50.7428 39.4806C50.6807 39.0102 50.6274 38.3579 50.5919 37.3683C50.5875 37.1864 50.5875 37.0044 50.5831 36.827C50.5609 34.3597 50.5254 32.1631 50.4854 31.1336C50.4854 29.5628 50.4233 25.6977 50.4233 22.6181V17.0046L50.4056 16.8227C49.5713 16.876 50.0284 16.836 48.2179 16.8981C47.6144 16.9366 47.252 16.8952 47.1307 16.7739C46.8911 16.5964 46.8289 16.1704 46.9487 15.2075C46.9487 14.8436 47.073 13.7564 47.1307 12.8511C47.1928 11.9459 47.3126 10.6768 47.4324 10.0733C47.5522 9.10589 47.6144 8.92839 47.7342 8.80414L47.9161 8.62664L49.6068 8.68433C50.3479 8.70652 50.7783 8.71983 51.0046 8.72427C50.5609 8.70208 49.5846 8.64439 51.2043 8.61333C55.309 8.48908 57.2482 8.61333 58.0336 8.61333C58.7569 8.67102 58.9389 8.79083 59.0587 9.09258C59.0587 9.21683 59.1208 10.4815 59.1208 12.1145C59.1208 13.7475 59.1208 14.9501 59.1785 14.9501C59.1785 15.0122 59.2406 18.8773 59.2406 23.5855C59.2983 28.2315 59.3604 33.2459 59.3604 34.6925C59.3871 35.8241 59.4181 37.04 59.4403 38.2603C59.5069 38.5043 59.5867 38.7439 59.6799 38.9969C59.8574 39.6581 60.0394 39.9021 60.6429 40.5056C61.5126 41.2645 62.5821 41.7304 63.9311 41.8191C64.1796 41.8325 64.3704 42.0455 64.3704 42.2895L64.5612 49.3895Z" fill="#00AEFF"/>
<path d="M20.3415 37.8517C20.3415 32.8152 20.2084 27.3127 20.1773 25.6309C20.1995 27.894 20.2439 31.4218 20.2838 34.7632C20.2838 39.4714 20.3459 43.3365 20.3459 43.3942C20.3592 43.3942 20.3726 43.4962 20.3814 43.6826C20.3681 42.2094 20.3592 40.3057 20.3415 37.8517ZM21.4287 49.6865C21.1891 49.6244 20.7631 49.3227 20.6432 49.0209C20.4968 48.7635 20.4391 48.2843 20.4036 45.746V46.2342C20.4036 47.8627 20.4657 49.1319 20.4657 49.2517C20.5856 49.5534 20.7675 49.6732 21.4908 49.7354C21.6949 49.7354 22.1165 49.7354 22.7067 49.7354C22.0233 49.7176 21.513 49.691 21.4287 49.691V49.6865Z" fill="#00AEFF"/>
<path d="M89.8683 8.89268C89.9881 9.0125 89.9881 9.43406 89.9881 17.3461C89.926 32.8641 89.8683 30.3214 89.6864 32.1319C89.4467 34.1864 88.7811 36.2366 87.9957 37.6255C87.2102 38.8946 86.4248 39.7999 85.2799 40.5853C84.2548 41.2509 83.6514 41.4906 82.1382 42.0319C80.7492 42.4535 79.7819 42.6976 78.5172 42.8174C77.6119 42.8795 74.2927 42.8795 73.4451 42.8174C72.2958 42.6976 71.2707 42.4535 69.9439 42.0319C68.373 41.4906 67.7695 41.2465 66.8022 40.5853C64.9917 39.3783 63.7847 37.6876 63.0569 35.3934C62.8173 34.608 62.5155 33.0371 62.3913 32.1319C62.1517 30.3214 62.0895 32.8641 62.0895 17.3461C62.0895 9.4385 62.0895 9.0125 62.2094 8.89268C62.3691 8.6501 63.6575 8.52881 66.0744 8.52881C69.8197 8.52881 70.543 8.52881 70.7249 8.76843C70.8447 8.88825 70.8447 9.07018 70.8447 13.5387C70.8447 16.1347 70.8447 19.2764 70.7826 20.6032C70.6628 24.7079 70.6628 24.6414 70.7205 27.1796C70.7826 29.7134 70.9024 30.4989 71.324 31.6482C71.5059 32.3138 71.6879 32.5534 72.2914 33.1569C73.2587 34.0045 74.4657 34.4837 76.0366 34.4837C77.6075 34.4837 78.8145 34.0001 79.7197 33.1569C80.3232 32.5534 80.5052 32.3138 80.7448 31.6482C81.1664 30.5033 81.2285 29.7179 81.3483 27.1796C81.4104 24.6458 81.3483 24.7124 81.2285 20.6032C81.2285 19.2764 81.1664 16.1347 81.1664 13.5387C81.1664 9.07018 81.1663 8.88825 81.2862 8.76843C81.5258 8.52881 82.1914 8.52881 85.9367 8.52881C89.6819 8.52881 89.6198 8.52881 89.8594 8.89268H89.8683Z" fill="#00AEFF"/>
<path d="M54.7987 36.7734H54.7854C54.7854 36.9642 54.7987 37.1462 54.8076 37.3148C54.8032 37.1329 54.8031 36.9509 54.7987 36.7734Z" fill="#00AEFF"/>
<path d="M119.258 27.9517C116.546 28.4177 101.45 28.2402 101.45 28.2402C101.792 33.0105 104.082 35.1937 109.753 35.1937C113.014 35.1937 116.635 34.7012 119.182 33.3078C119.551 33.1081 119.999 33.3743 119.999 33.7959V39.8087C119.999 40.0173 119.883 40.2125 119.697 40.3057C116.702 41.8278 113.165 42.5866 108.466 42.5866C103.159 42.5866 98.69 41.4462 95.7967 38.1757C93.0455 35.065 92.1757 31.0624 92.1757 25.7951C92.1757 20.337 92.726 16.2855 96.134 12.4515C99.116 9.09234 103.394 8.43115 108.018 8.43115C112.641 8.43115 115.552 9.67809 118.175 12.5225C120.798 15.367 121.942 18.806 121.942 23.6828V25.267C121.942 26.7492 121.969 27.4858 119.258 27.9517ZM113.485 22.0143C113.485 17.3062 111.581 14.9543 107.774 14.9543C106.149 14.9543 104.738 15.6288 103.553 16.9778C102.364 18.3268 101.645 20.0042 101.388 22.0188H113.489L113.485 22.0143Z" fill="#00AEFF"/>
<path d="M70.5429 50.2547C70.2589 50.2547 69.9927 50.1971 69.7442 50.0861C69.4957 49.9752 69.2782 49.8154 69.0963 49.6202C68.9144 49.4205 68.7679 49.1853 68.6659 48.9146C68.5594 48.6439 68.5061 48.3466 68.5061 48.0182C68.5061 47.6899 68.5594 47.397 68.6659 47.1219C68.7724 46.8512 68.9144 46.616 69.0963 46.4163C69.2782 46.2166 69.4957 46.0613 69.7442 45.9504C69.9927 45.8394 70.2589 45.7817 70.5429 45.7817C71.0399 45.7817 71.4482 45.9282 71.7677 46.2122C72.0872 46.4962 72.309 46.8689 72.4333 47.3216H71.9363C71.8387 47.0242 71.6656 46.7669 71.4304 46.5494C71.1908 46.332 70.8979 46.2255 70.5474 46.2255C70.3344 46.2255 70.1347 46.2699 69.9394 46.3586C69.7486 46.4474 69.58 46.5716 69.4335 46.7314C69.2871 46.8911 69.1717 47.0775 69.0874 47.2994C69.0031 47.5212 68.9587 47.7564 68.9587 48.0138C68.9587 48.2712 69.0031 48.5108 69.0874 48.7282C69.1717 48.9457 69.2915 49.1365 69.4335 49.2962C69.5755 49.456 69.7486 49.5802 69.9394 49.669C70.1302 49.7577 70.3344 49.8021 70.5474 49.8021C70.8979 49.8021 71.1952 49.6956 71.4304 49.4782C71.67 49.2607 71.8387 49.0078 71.9363 48.7061H72.4333C72.309 49.1587 72.0872 49.527 71.7677 49.8154C71.4482 50.1039 71.0399 50.2459 70.5429 50.2459V50.2547Z" fill="#00AEFF"/>
<path d="M85.9499 50.2547C85.6659 50.2547 85.3996 50.1971 85.1511 50.0861C84.9026 49.9752 84.6896 49.8154 84.5033 49.6202C84.3213 49.4205 84.1749 49.1853 84.0728 48.9146C83.9663 48.6439 83.9131 48.3466 83.9131 48.0182C83.9131 47.6899 83.9663 47.397 84.0728 47.1219C84.1793 46.8512 84.3213 46.616 84.5033 46.4163C84.6852 46.2166 84.9026 46.0613 85.1511 45.9504C85.3996 45.8394 85.6659 45.7817 85.9499 45.7817C86.2339 45.7817 86.5001 45.8394 86.7486 45.9504C86.9971 46.0613 87.2101 46.2211 87.3965 46.4163C87.5785 46.616 87.7249 46.8512 87.827 47.1219C87.9335 47.3926 87.9867 47.6899 87.9867 48.0182C87.9867 48.3466 87.9335 48.6395 87.827 48.9146C87.7205 49.1853 87.5785 49.4205 87.3965 49.6202C87.2146 49.8199 86.9971 49.9752 86.7486 50.0861C86.5001 50.1971 86.2339 50.2547 85.9499 50.2547ZM85.9499 49.8066C86.1629 49.8066 86.3626 49.7622 86.5578 49.6734C86.7486 49.5847 86.9173 49.4604 87.0637 49.3007C87.2101 49.1409 87.3255 48.9546 87.4098 48.7327C87.4941 48.5152 87.5385 48.2756 87.5385 48.0182C87.5385 47.7609 87.4941 47.5212 87.4098 47.3038C87.3255 47.0864 87.2057 46.8956 87.0637 46.7358C86.9173 46.5761 86.7486 46.4518 86.5578 46.3631C86.367 46.2743 86.1629 46.2299 85.9499 46.2299C85.7369 46.2299 85.5372 46.2743 85.342 46.3631C85.1511 46.4518 84.9825 46.5761 84.8361 46.7358C84.6896 46.8956 84.5743 47.0819 84.49 47.3038C84.4056 47.5212 84.3613 47.7609 84.3613 48.0182C84.3613 48.2756 84.4056 48.5152 84.49 48.7327C84.5743 48.9501 84.6941 49.1409 84.8361 49.3007C84.9825 49.4604 85.1511 49.5847 85.342 49.6734C85.5328 49.7622 85.7369 49.8066 85.9499 49.8066Z" fill="#00AEFF"/>
<path d="M101.557 50.2545C101.273 50.2545 101.006 50.1968 100.758 50.0858C100.509 49.9749 100.296 49.8151 100.11 49.6199C99.9281 49.4202 99.7816 49.185 99.6796 48.9143C99.5731 48.6437 99.5198 48.3463 99.5198 48.018C99.5198 47.6896 99.5731 47.3967 99.6796 47.1216C99.7861 46.8509 99.9281 46.6157 100.11 46.416C100.292 46.2163 100.509 46.061 100.758 45.9501C101.006 45.8392 101.273 45.7815 101.557 45.7815C101.81 45.7815 102.027 45.8214 102.209 45.9057C102.391 45.99 102.546 46.0788 102.67 46.1808C102.817 46.3006 102.941 46.4338 103.048 46.5802H103.096V43.9443H103.545V50.2056H103.247L103.096 49.4601H103.048C102.941 49.6066 102.817 49.7397 102.67 49.8595C102.546 49.9571 102.391 50.0503 102.209 50.1347C102.027 50.219 101.81 50.2589 101.557 50.2589V50.2545ZM101.557 49.8063C101.77 49.8063 101.969 49.7619 102.165 49.6732C102.355 49.5844 102.524 49.4601 102.67 49.3004C102.817 49.1406 102.932 48.9543 103.021 48.7324C103.105 48.515 103.15 48.2753 103.15 48.018C103.15 47.7606 103.105 47.521 103.021 47.3035C102.932 47.0861 102.817 46.8953 102.67 46.7355C102.524 46.5758 102.355 46.4515 102.165 46.3628C101.974 46.274 101.77 46.2296 101.557 46.2296C101.344 46.2296 101.144 46.274 100.949 46.3628C100.758 46.4515 100.589 46.5758 100.443 46.7355C100.296 46.8953 100.181 47.0816 100.097 47.3035C100.012 47.521 99.968 47.7606 99.968 48.018C99.968 48.2753 100.012 48.515 100.097 48.7324C100.181 48.9498 100.301 49.1406 100.443 49.3004C100.589 49.4601 100.758 49.5844 100.949 49.6732C101.139 49.7619 101.344 49.8063 101.557 49.8063Z" fill="#00AEFF"/>
<path d="M117.461 50.2547C117.163 50.2547 116.884 50.1971 116.631 50.0861C116.378 49.9752 116.156 49.8154 115.97 49.6202C115.783 49.4205 115.637 49.1853 115.53 48.9146C115.424 48.6439 115.371 48.3466 115.371 48.0182C115.371 47.6899 115.424 47.397 115.53 47.1219C115.637 46.8512 115.779 46.616 115.961 46.4163C116.143 46.2166 116.36 46.0613 116.609 45.9504C116.857 45.8394 117.123 45.7817 117.407 45.7817C117.691 45.7817 117.935 45.835 118.179 45.9415C118.419 46.048 118.632 46.1944 118.81 46.3808C118.987 46.5672 119.129 46.7891 119.236 47.042C119.342 47.2994 119.395 47.5745 119.395 47.8718C119.395 47.9251 119.395 47.9694 119.386 48.0094C119.378 48.0493 119.373 48.0848 119.369 48.1203C119.36 48.1558 119.355 48.1869 119.351 48.2179H115.823C115.85 48.4576 115.907 48.675 115.996 48.8702C116.085 49.0655 116.2 49.2341 116.342 49.3717C116.484 49.5092 116.649 49.6202 116.839 49.6956C117.03 49.7711 117.234 49.811 117.461 49.811C117.62 49.811 117.767 49.7888 117.9 49.7444C118.033 49.7001 118.148 49.6468 118.25 49.5758C118.353 49.5048 118.441 49.4294 118.512 49.3495C118.583 49.2696 118.65 49.1897 118.703 49.1143H119.249C119.191 49.2519 119.107 49.3894 119 49.527C118.894 49.6646 118.765 49.7844 118.619 49.8953C118.468 50.0062 118.299 50.095 118.108 50.1571C117.918 50.2237 117.7 50.2547 117.461 50.2547ZM118.952 47.7697C118.925 47.5434 118.867 47.3393 118.779 47.1485C118.69 46.9621 118.574 46.7979 118.441 46.6604C118.304 46.5228 118.148 46.4207 117.975 46.3409C117.798 46.2654 117.611 46.2255 117.412 46.2255C117.212 46.2255 117.026 46.2654 116.848 46.3409C116.671 46.4163 116.515 46.5228 116.378 46.6604C116.24 46.7979 116.12 46.9577 116.027 47.1485C115.93 47.3393 115.863 47.5434 115.823 47.7697H118.956H118.952Z" fill="#00AEFF"/>
</g>
<defs>
<clipPath id="clip0_2028_358">
<rect width="101.974" height="41.8234" fill="white" transform="translate(19.9688 8.43115)"/>
</clipPath>
</defs>
</svg>
