<svg width="142" height="59" viewBox="0 0 142 59" fill="none" xmlns="http://www.w3.org/2000/svg">
<g clip-path="url(#clip0_2032_845)">
<path d="M20.3814 43.6829C20.3859 44.3085 20.3947 44.8588 20.3992 45.3425C20.4036 44.6103 20.3992 44.0157 20.3814 43.6829Z" fill="white"/>
<path d="M48.5995 33.3833C48.4175 32.3582 47.8762 31.3332 47.3304 30.5477C46.9709 30.064 46.1012 28.8215 45.5154 28.3423C42.6665 26.0126 40.2037 25.2538 39.4494 25.1118C39.4494 25.1118 34.2486 23.927 28.9635 23.7584C28.9369 21.7792 28.9192 19.3608 28.9192 17.1332C28.857 9.58498 28.7994 8.98148 28.5553 8.73742L28.3734 8.55548H26.0215C24.7524 8.55548 22.9419 8.61761 22.0366 8.61761C20.4036 8.67973 20.3459 8.67973 20.2261 8.86167C20.0442 8.98148 20.0442 9.03917 19.982 10.6722C19.9244 12.4205 20.0442 18.8239 20.164 23.6519C20.164 23.9891 20.1684 24.5172 20.1729 25.1872C20.1729 25.3292 20.1729 25.4801 20.1729 25.631C20.2039 27.3128 20.337 32.8153 20.337 37.8519C20.3548 40.3058 20.3637 42.2095 20.377 43.6827C20.3947 44.0155 20.3992 44.6102 20.3947 45.3424C20.3992 45.471 20.3992 45.6086 20.3992 45.7462C20.4347 48.2844 20.4924 48.7637 20.6388 49.021C20.7586 49.3228 21.1846 49.6245 21.4242 49.6867C21.5085 49.6867 22.0189 49.7133 22.7022 49.731C22.7244 49.731 22.751 49.731 22.7732 49.731C23.0661 49.7399 23.3856 49.7444 23.7184 49.7444C24.8677 49.8065 27.7654 49.8065 30.1794 49.8065C34.2264 49.8065 34.7678 49.8065 35.9748 49.6245C36.6981 49.5669 37.306 49.5047 37.3637 49.5047C37.3637 49.4426 37.8474 49.3849 38.3932 49.3228C39.476 49.203 40.8649 48.9634 41.7702 48.6616C43.6428 47.996 46.181 46.4872 47.0863 45.3379C47.8717 44.4327 48.595 42.6843 48.777 41.1134C49.1985 38.3355 49.1364 35.4955 48.5951 33.3833H48.5995ZM39.8443 39.0012C39.2408 40.2659 37.8519 40.8117 34.4705 41.0513C33.685 41.1134 32.66 41.1711 32.1763 41.2332C31.6926 41.2332 30.7297 41.2954 30.064 41.2954H29.1011V35.7263C29.1011 34.2619 29.0878 32.62 29.07 31.1335C30.2282 31.0536 33.8137 31.2267 35.5577 31.453C37.1862 31.6926 38.5175 32.4159 39.2408 33.5031C39.7822 34.2885 40.0262 35.1361 40.146 36.7025C40.2659 37.8519 40.2082 38.3977 39.8443 39.0012Z" fill="white"/>
<path d="M64.5612 49.3894C64.5612 49.8553 63.9887 50.2103 63.5272 50.2059C62.7729 50.2015 62.1072 50.1881 61.7922 50.166C60.8914 50.0728 60.066 49.8997 59.1075 49.629C58.8501 49.5536 58.575 49.4693 58.291 49.3805C56.7201 48.8347 56.1166 48.5951 55.1492 47.9295C53.3387 46.7225 52.1317 45.0318 51.4084 42.7376C51.1644 41.9521 50.8626 40.3857 50.7428 39.4805C50.6807 39.0101 50.6274 38.3578 50.5919 37.3682C50.5875 37.1863 50.5875 37.0043 50.5831 36.8268C50.5609 34.3596 50.5254 32.163 50.4854 31.1335C50.4854 29.5626 50.4233 25.6976 50.4233 22.618V17.0045L50.4056 16.8226C49.5713 16.8758 50.0284 16.8359 48.2179 16.898C47.6144 16.9365 47.252 16.8951 47.1307 16.7738C46.8911 16.5963 46.8289 16.1703 46.9487 15.2073C46.9487 14.8435 47.073 13.7563 47.1307 12.851C47.1928 11.9458 47.3126 10.6766 47.4324 10.0731C47.5522 9.10577 47.6144 8.92827 47.7342 8.80402L47.9161 8.62652L49.6068 8.68421C50.3479 8.70639 50.7783 8.71971 51.0046 8.72414C50.5609 8.70196 49.5846 8.64427 51.2043 8.61321C55.309 8.48896 57.2482 8.61321 58.0336 8.61321C58.7569 8.67089 58.9389 8.79071 59.0587 9.09246C59.0587 9.21671 59.1208 10.4814 59.1208 12.1144C59.1208 13.7474 59.1208 14.95 59.1785 14.95C59.1785 15.0121 59.2406 18.8771 59.2406 23.5853C59.2983 28.2314 59.3604 33.2458 59.3604 34.6924C59.3871 35.824 59.4181 37.0398 59.4403 38.2601C59.5069 38.5042 59.5867 38.7438 59.6799 38.9968C59.8574 39.658 60.0394 39.902 60.6429 40.5055C61.5126 41.2643 62.5821 41.7303 63.9311 41.819C64.1796 41.8323 64.3704 42.0453 64.3704 42.2894L64.5612 49.3894Z" fill="white"/>
<path d="M20.3415 37.8518C20.3415 32.8152 20.2084 27.3127 20.1773 25.6309C20.1995 27.894 20.2439 31.4219 20.2838 34.7633C20.2838 39.4715 20.3459 43.3365 20.3459 43.3942C20.3592 43.3942 20.3726 43.4963 20.3814 43.6827C20.3681 42.2094 20.3592 40.3057 20.3415 37.8518ZM21.4287 49.6866C21.1891 49.6245 20.7631 49.3227 20.6432 49.021C20.4968 48.7636 20.4391 48.2844 20.4036 45.7461V46.2342C20.4036 47.8628 20.4657 49.1319 20.4657 49.2517C20.5856 49.5535 20.7675 49.6733 21.4908 49.7354C21.6949 49.7354 22.1165 49.7354 22.7067 49.7354C22.0233 49.7177 21.513 49.691 21.4287 49.691V49.6866Z" fill="white"/>
<path d="M89.8683 8.89274C89.9881 9.01256 89.9881 9.43412 89.9881 17.3462C89.926 32.8641 89.8683 30.3214 89.6863 32.1319C89.4467 34.1865 88.7811 36.2366 87.9957 37.6256C87.2102 38.8947 86.4248 39.7999 85.2799 40.5854C84.2548 41.251 83.6513 41.4906 82.1382 42.032C80.7492 42.4536 79.7818 42.6976 78.5172 42.8174C77.6119 42.8796 74.2927 42.8796 73.4451 42.8174C72.2958 42.6976 71.2707 42.4536 69.9439 42.032C68.373 41.4906 67.7695 41.2466 66.8022 40.5854C64.9917 39.3784 63.7847 37.6877 63.0569 35.3935C62.8173 34.6081 62.5155 33.0372 62.3913 32.1319C62.1517 30.3214 62.0895 32.8641 62.0895 17.3462C62.0895 9.43856 62.0895 9.01256 62.2093 8.89274C62.3691 8.65016 63.6574 8.52887 66.0744 8.52887C69.8197 8.52887 70.543 8.52887 70.7249 8.76849C70.8447 8.88831 70.8447 9.07024 70.8447 13.5388C70.8447 16.1347 70.8447 19.2765 70.7826 20.6033C70.6628 24.708 70.6628 24.6414 70.7205 27.1797C70.7826 29.7135 70.9024 30.4989 71.324 31.6482C71.5059 32.3139 71.6878 32.5535 72.2913 33.157C73.2587 34.0046 74.4657 34.4838 76.0366 34.4838C77.6075 34.4838 78.8145 34.0001 79.7197 33.157C80.3232 32.5535 80.5052 32.3139 80.7448 31.6482C81.1663 30.5034 81.2285 29.7179 81.3483 27.1797C81.4104 24.6459 81.3483 24.7124 81.2285 20.6033C81.2285 19.2765 81.1663 16.1347 81.1663 13.5388C81.1663 9.07024 81.1663 8.88831 81.2861 8.76849C81.5258 8.52887 82.1914 8.52887 85.9367 8.52887C89.6819 8.52887 89.6198 8.52887 89.8594 8.89274H89.8683Z" fill="white"/>
<path d="M54.7987 36.7736H54.7854C54.7854 36.9644 54.7987 37.1464 54.8076 37.315C54.8031 37.1331 54.8031 36.9511 54.7987 36.7736Z" fill="white"/>
<path d="M119.258 27.9518C116.546 28.4178 101.45 28.2403 101.45 28.2403C101.792 33.0106 104.082 35.1938 109.753 35.1938C113.014 35.1938 116.635 34.7013 119.182 33.3079C119.551 33.1082 119.999 33.3745 119.999 33.796V39.8088C119.999 40.0174 119.883 40.2127 119.697 40.3058C116.702 41.8279 113.165 42.5867 108.466 42.5867C103.159 42.5867 98.69 41.4463 95.7967 38.1758C93.0455 35.0652 92.1757 31.0625 92.1757 25.7952C92.1757 20.3371 92.726 16.2857 96.134 12.4517C99.116 9.09246 103.394 8.43127 108.018 8.43127C112.641 8.43127 115.552 9.67821 118.175 12.5227C120.798 15.3671 121.942 18.8062 121.942 23.683V25.2672C121.942 26.7493 121.969 27.4859 119.258 27.9518ZM113.485 22.0145C113.485 17.3063 111.581 14.9544 107.774 14.9544C106.149 14.9544 104.738 15.6289 103.553 16.9779C102.364 18.3269 101.645 20.0043 101.388 22.0189H113.489L113.485 22.0145Z" fill="white"/>
<path d="M70.5429 50.2549C70.2589 50.2549 69.9927 50.1972 69.7442 50.0863C69.4957 49.9754 69.2782 49.8156 69.0963 49.6204C68.9144 49.4207 68.7679 49.1855 68.6659 48.9148C68.5594 48.6441 68.5061 48.3468 68.5061 48.0184C68.5061 47.69 68.5594 47.3972 68.6659 47.122C68.7724 46.8514 68.9144 46.6162 69.0963 46.4165C69.2782 46.2168 69.4957 46.0615 69.7442 45.9505C69.9927 45.8396 70.2589 45.7819 70.5429 45.7819C71.0399 45.7819 71.4482 45.9284 71.7677 46.2124C72.0872 46.4964 72.3091 46.8691 72.4333 47.3217H71.9363C71.8387 47.0244 71.6656 46.767 71.4304 46.5496C71.1908 46.3322 70.8979 46.2257 70.5474 46.2257C70.3344 46.2257 70.1347 46.27 69.9394 46.3588C69.7486 46.4475 69.58 46.5718 69.4336 46.7315C69.2871 46.8913 69.1717 47.0777 69.0874 47.2995C69.0031 47.5214 68.9587 47.7566 68.9587 48.014C68.9587 48.2714 69.0031 48.511 69.0874 48.7284C69.1717 48.9459 69.2916 49.1367 69.4336 49.2964C69.5756 49.4562 69.7486 49.5804 69.9394 49.6692C70.1302 49.7579 70.3344 49.8023 70.5474 49.8023C70.8979 49.8023 71.1952 49.6958 71.4304 49.4784C71.6701 49.2609 71.8387 49.008 71.9363 48.7062H72.4333C72.3091 49.1589 72.0872 49.5272 71.7677 49.8156C71.4482 50.104 71.0399 50.246 70.5429 50.246V50.2549Z" fill="white"/>
<path d="M85.9499 50.2549C85.6659 50.2549 85.3997 50.1972 85.1512 50.0863C84.9027 49.9754 84.6897 49.8156 84.5033 49.6204C84.3213 49.4207 84.1749 49.1855 84.0728 48.9148C83.9663 48.6441 83.9131 48.3468 83.9131 48.0184C83.9131 47.69 83.9663 47.3972 84.0728 47.122C84.1793 46.8514 84.3213 46.6162 84.5033 46.4165C84.6852 46.2168 84.9027 46.0615 85.1512 45.9505C85.3997 45.8396 85.6659 45.7819 85.9499 45.7819C86.2339 45.7819 86.5002 45.8396 86.7487 45.9505C86.9972 46.0615 87.2102 46.2212 87.3965 46.4165C87.5785 46.6162 87.7249 46.8514 87.827 47.122C87.9335 47.3927 87.9867 47.69 87.9867 48.0184C87.9867 48.3468 87.9335 48.6397 87.827 48.9148C87.7205 49.1855 87.5785 49.4207 87.3965 49.6204C87.2146 49.82 86.9972 49.9754 86.7487 50.0863C86.5002 50.1972 86.2339 50.2549 85.9499 50.2549ZM85.9499 49.8067C86.1629 49.8067 86.3626 49.7624 86.5578 49.6736C86.7487 49.5849 86.9173 49.4606 87.0637 49.3009C87.2102 49.1411 87.3255 48.9547 87.4098 48.7329C87.4942 48.5154 87.5385 48.2758 87.5385 48.0184C87.5385 47.761 87.4942 47.5214 87.4098 47.304C87.3255 47.0865 87.2057 46.8957 87.0637 46.736C86.9173 46.5762 86.7487 46.452 86.5578 46.3632C86.367 46.2745 86.1629 46.2301 85.9499 46.2301C85.7369 46.2301 85.5372 46.2745 85.342 46.3632C85.1512 46.452 84.9825 46.5762 84.8361 46.736C84.6897 46.8957 84.5743 47.0821 84.49 47.304C84.4057 47.5214 84.3613 47.761 84.3613 48.0184C84.3613 48.2758 84.4057 48.5154 84.49 48.7329C84.5743 48.9503 84.6941 49.1411 84.8361 49.3009C84.9825 49.4606 85.1512 49.5849 85.342 49.6736C85.5328 49.7624 85.7369 49.8067 85.9499 49.8067Z" fill="white"/>
<path d="M101.557 50.2549C101.273 50.2549 101.006 50.1972 100.758 50.0863C100.509 49.9753 100.296 49.8156 100.11 49.6203C99.928 49.4206 99.7816 49.1855 99.6795 48.9148C99.573 48.6441 99.5198 48.3468 99.5198 48.0184C99.5198 47.69 99.573 47.3971 99.6795 47.122C99.786 46.8513 99.928 46.6161 100.11 46.4165C100.292 46.2168 100.509 46.0615 100.758 45.9505C101.006 45.8396 101.273 45.7819 101.557 45.7819C101.81 45.7819 102.027 45.8218 102.209 45.9061C102.391 45.9904 102.546 46.0792 102.67 46.1813C102.817 46.3011 102.941 46.4342 103.048 46.5806H103.096V43.9448H103.545V50.2061H103.247L103.096 49.4606H103.048C102.941 49.607 102.817 49.7401 102.67 49.86C102.546 49.9576 102.391 50.0508 102.209 50.1351C102.027 50.2194 101.81 50.2593 101.557 50.2593V50.2549ZM101.557 49.8067C101.77 49.8067 101.969 49.7623 102.165 49.6736C102.355 49.5848 102.524 49.4606 102.67 49.3008C102.817 49.1411 102.932 48.9547 103.021 48.7328C103.105 48.5154 103.15 48.2758 103.15 48.0184C103.15 47.761 103.105 47.5214 103.021 47.304C102.932 47.0865 102.817 46.8957 102.67 46.736C102.524 46.5762 102.355 46.452 102.165 46.3632C101.974 46.2745 101.77 46.2301 101.557 46.2301C101.344 46.2301 101.144 46.2745 100.949 46.3632C100.758 46.452 100.589 46.5762 100.443 46.736C100.296 46.8957 100.181 47.0821 100.097 47.304C100.012 47.5214 99.968 47.761 99.968 48.0184C99.968 48.2758 100.012 48.5154 100.097 48.7328C100.181 48.9503 100.301 49.1411 100.443 49.3008C100.589 49.4606 100.758 49.5848 100.949 49.6736C101.139 49.7623 101.344 49.8067 101.557 49.8067Z" fill="white"/>
<path d="M117.461 50.2549C117.163 50.2549 116.884 50.1972 116.631 50.0863C116.378 49.9754 116.156 49.8156 115.97 49.6204C115.783 49.4207 115.637 49.1855 115.53 48.9148C115.424 48.6441 115.371 48.3468 115.371 48.0184C115.371 47.69 115.424 47.3972 115.53 47.122C115.637 46.8514 115.779 46.6162 115.961 46.4165C116.143 46.2168 116.36 46.0615 116.609 45.9505C116.857 45.8396 117.123 45.7819 117.407 45.7819C117.691 45.7819 117.935 45.8352 118.179 45.9417C118.419 46.0482 118.632 46.1946 118.81 46.381C118.987 46.5674 119.129 46.7892 119.236 47.0422C119.342 47.2995 119.395 47.5747 119.395 47.872C119.395 47.9252 119.395 47.9696 119.386 48.0095C119.378 48.0495 119.373 48.085 119.369 48.1205C119.36 48.156 119.355 48.187 119.351 48.2181H115.823C115.85 48.4577 115.907 48.6752 115.996 48.8704C116.085 49.0657 116.2 49.2343 116.342 49.3719C116.484 49.5094 116.649 49.6204 116.839 49.6958C117.03 49.7712 117.234 49.8112 117.461 49.8112C117.62 49.8112 117.767 49.789 117.9 49.7446C118.033 49.7002 118.148 49.647 118.25 49.576C118.353 49.505 118.441 49.4295 118.512 49.3497C118.583 49.2698 118.65 49.1899 118.703 49.1145H119.249C119.191 49.252 119.107 49.3896 119 49.5272C118.894 49.6647 118.765 49.7845 118.619 49.8955C118.468 50.0064 118.299 50.0952 118.108 50.1573C117.918 50.2239 117.7 50.2549 117.461 50.2549ZM118.952 47.7699C118.925 47.5436 118.867 47.3395 118.779 47.1487C118.69 46.9623 118.574 46.7981 118.441 46.6605C118.304 46.523 118.148 46.4209 117.975 46.341C117.798 46.2656 117.611 46.2257 117.412 46.2257C117.212 46.2257 117.026 46.2656 116.848 46.341C116.671 46.4165 116.515 46.523 116.378 46.6605C116.24 46.7981 116.12 46.9579 116.027 47.1487C115.93 47.3395 115.863 47.5436 115.823 47.7699H118.956H118.952Z" fill="white"/>
</g>
<defs>
<clipPath id="clip0_2032_845">
<rect width="101.974" height="41.8234" fill="white" transform="translate(19.9688 8.43121)"/>
</clipPath>
</defs>
</svg>
