<svg xmlns="http://www.w3.org/2000/svg" width="190" height="38.816" viewBox="0 0 190 38.816">
  <g id="logo-topo" transform="translate(-262.834 -223.625)">
    <g id="Grupo_980" data-name="Grupo 980" transform="translate(262.834 223.625)">
      <path id="Caminho_4420" data-name="Caminho 4420" d="M403.955,297.409a4.009,4.009,0,0,0-6.135-3.4l-3.369,2.654h0l9.5,7.347v-6.6Z" transform="translate(-363.886 -277.192)" fill="none"/>
      <path id="Caminho_4421" data-name="Caminho 4421" d="M297.354,297.409v6.078h0v.524l9.5-7.347-3.369-2.654A4.009,4.009,0,0,0,297.354,297.409Z" transform="translate(-289.338 -277.192)" fill="none"/>
      <path id="Caminho_4422" data-name="Caminho 4422" d="M314.516,365.8Z" transform="translate(-302.505 -332.781)" fill="#284180" style="mix-blend-mode: difference;isolation: isolate"/>
      <path id="Caminho_4423" data-name="Caminho 4423" d="M306.859,307.474h0l-9.5,7.347V317a3.981,3.981,0,0,0,.507,1.966,3.926,3.926,0,0,0,.293.446,4.064,4.064,0,0,0,1.642,1.278,3.906,3.906,0,0,0,3.929-.475l9.655-7.606h0Z" transform="translate(-289.338 -288.002)" fill="#ec1b34"/>
      <path id="Caminho_4424" data-name="Caminho 4424" d="M418.178,365.8h0Z" transform="translate(-382.103 -332.781)" fill="#ec1b34"/>
      <path id="Caminho_4425" data-name="Caminho 4425" d="M435.393,339.046l-.016-.036v.024Z" transform="translate(-395.308 -312.215)" fill="#ec1b34"/>
      <path id="Caminho_4426" data-name="Caminho 4426" d="M314.435,365.8h0Z" transform="translate(-302.452 -332.781)" fill="#284180"/>
      <path id="Caminho_4427" data-name="Caminho 4427" d="M286.877,238.055l-17.631-13.63h0a3.989,3.989,0,0,0-2.368-.8,4.1,4.1,0,0,0-4.043,4.1v24.9h0a4,4,0,0,0,4.008,4.008h7.991a4.058,4.058,0,0,1-3.475-2.049,3.981,3.981,0,0,1-.507-1.966v-2.7h0v-6.078a4.01,4.01,0,0,1,6.135-3.4l3.369,2.654h0l.128-.1,6.394-4.943Z" transform="translate(-262.834 -223.625)" fill="#284180"/>
      <path id="Caminho_4428" data-name="Caminho 4428" d="M394.452,307.474h0Z" transform="translate(-363.886 -288.002)" fill="#ae2a2b"/>
      <path id="Caminho_4429" data-name="Caminho 4429" d="M372.888,307.475h0l-6.522,5.138h0l9.655,7.606A3.978,3.978,0,0,0,382.392,317v-2.181Z" transform="translate(-342.323 -288.003)" fill="#284180"/>
      <path id="Caminho_4430" data-name="Caminho 4430" d="M338.281,307.147h0l.128-.1Z" transform="translate(-320.761 -287.675)" fill="#ae2a2b"/>
      <g id="Grupo_979" data-name="Grupo 979" transform="translate(24.043 0)">
        <path id="Caminho_4431" data-name="Caminho 4431" d="M390.409,248.524V227.73a4.1,4.1,0,0,0-4.044-4.1,3.99,3.99,0,0,0-2.368.8l-17.632,13.63h0l6.522,5.042h0l3.369-2.654a4.01,4.01,0,0,1,6.135,3.4v6.577l.016.036-.016-.012v2.181a4.014,4.014,0,0,1-3.982,4.015H386.4c.124,0,.247-.008.368-.019l.118-.014c.047-.006.094-.009.141-.017h0a2.327,2.327,0,0,0,1.376-.488c.015-.009.029-.021.045-.03a4.006,4.006,0,0,0,.338-.226l.078-.058a4.03,4.03,0,0,0,.677-.671c.021-.027.041-.055.061-.082q.114-.151.213-.313c.02-.034.042-.067.061-.1a3.977,3.977,0,0,0,.371-.874c.012-.042.022-.085.033-.127q.045-.176.073-.358c.007-.046.015-.091.021-.138a4.055,4.055,0,0,0,.033-.493h0v-1.044c0-1.442,0-3.085,0-3.085S390.409,248.517,390.409,248.524Z" transform="translate(-366.366 -223.625)" fill="#ec1b34"/>
      </g>
      <path id="Caminho_4432" data-name="Caminho 4432" d="M344.8,285.764l-6.394,4.943-.128.1,6.522,5.138,6.522-5.138Z" transform="translate(-320.761 -271.334)" fill="#ae2a2b"/>
    </g>
    <g id="Grupo_981" data-name="Grupo 981" transform="translate(317.922 235.594)">
      <path id="Caminho_4433" data-name="Caminho 4433" d="M535.583,298.733a13.607,13.607,0,0,0-4.424.818,6.628,6.628,0,0,0-3.7-.818,13.665,13.665,0,0,0-4.854.947.616.616,0,0,0-.388.572v13.437a.616.616,0,0,0,.616.617h1.478a.616.616,0,0,0,.616-.617V301.653a10.68,10.68,0,0,1,2.476-.346c2.194,0,3.023.449,3.023,5.213v7.17a.616.616,0,0,0,.617.617h1.478a.616.616,0,0,0,.617-.617v-7.17a15.279,15.279,0,0,0-.51-4.742,9.851,9.851,0,0,1,2.794-.471c2.305,0,3.051.4,3.051,5.213v7.17a.616.616,0,0,0,.616.617h1.478a.616.616,0,0,0,.616-.617v-7.17C541.18,301.226,540.628,298.733,535.583,298.733Z" transform="translate(-522.214 -293.26)" fill="#284180"/>
      <path id="Caminho_4434" data-name="Caminho 4434" d="M623.755,298.733a15.464,15.464,0,0,0-4.882.746.616.616,0,0,0-.409.659l.164,1.313a.616.616,0,0,0,.86.488,10.382,10.382,0,0,1,3.61-.632c2.864,0,3.078.98,3.078,2.476v1h-1.19c-5.094,0-7.677,1.736-7.677,5.159,0,3.29,1.707,4.694,5.706,4.694a16.954,16.954,0,0,0,5.433-.938.617.617,0,0,0,.41-.581v-9.332C628.86,300.243,627.333,298.733,623.755,298.733Zm2.421,12.963a15.39,15.39,0,0,1-3.078.392c-2.838,0-3.051-.861-3.051-2.175,0-1.018,0-2.722,4.857-2.722h1.272Z" transform="translate(-595.226 -293.26)" fill="#284180"/>
      <path id="Caminho_4435" data-name="Caminho 4435" d="M692.712,299.62a16.452,16.452,0,0,0-5.414-.887c-4.3,0-6.473,2.62-6.473,7.786,0,4.013.749,8.115,6.308,8.115a14.759,14.759,0,0,0,3.27-.389v5.245a.616.616,0,0,0,.617.617H692.5a.616.616,0,0,0,.617-.617V300.2A.617.617,0,0,0,692.712,299.62Zm-5.5,1.687a14.317,14.317,0,0,1,3.187.386v9.975a14.205,14.205,0,0,1-3.187.393c-3.047,0-3.625-1.947-3.625-5.541C683.59,303.3,684.2,301.307,687.216,301.307Z" transform="translate(-643.991 -293.26)" fill="#284180"/>
      <path id="Caminho_4436" data-name="Caminho 4436" d="M762.422,298.733a13.607,13.607,0,0,0-4.424.818,6.628,6.628,0,0,0-3.7-.818,13.666,13.666,0,0,0-4.854.947.616.616,0,0,0-.388.572v13.437a.617.617,0,0,0,.617.617h1.478a.616.616,0,0,0,.617-.617V301.653a10.678,10.678,0,0,1,2.476-.346c2.194,0,3.023.449,3.023,5.213v7.17a.617.617,0,0,0,.617.617h1.478a.616.616,0,0,0,.617-.617v-7.17a15.282,15.282,0,0,0-.51-4.742,9.85,9.85,0,0,1,2.794-.471c2.305,0,3.051.4,3.051,5.213v7.17a.616.616,0,0,0,.617.617H767.4a.616.616,0,0,0,.617-.617v-7.17C768.019,301.226,767.467,298.733,762.422,298.733Z" transform="translate(-696.375 -293.26)" fill="#284180"/>
      <path id="Caminho_4437" data-name="Caminho 4437" d="M867.769,279.393h1.314a.617.617,0,0,0,.5-.25l2.32-2.995a.617.617,0,0,0-.5-.983H869.6a.617.617,0,0,0-.527.3l-1.828,3a.616.616,0,0,0,.527.937Z" transform="translate(-787.049 -275.165)" fill="#284180"/>
      <path id="Caminho_4438" data-name="Caminho 4438" d="M851.329,298.733c-2.779,0-6.473.807-6.473,7.786,0,4.013.75,8.115,6.309,8.115,5.737,0,6.473-4.337,6.473-8.115C857.637,302.894,856.92,298.733,851.329,298.733Zm-.082,13.327c-3.065,0-3.625-1.866-3.625-5.541,0-3.38.578-5.213,3.625-5.213s3.625,1.832,3.625,5.213C854.872,310.194,854.311,312.06,851.247,312.06Z" transform="translate(-769.93 -293.26)" fill="#284180"/>
      <path id="Caminho_4439" data-name="Caminho 4439" d="M917.582,300.148H915.94a.617.617,0,0,0-.586.427l-3.524,10.878-3.6-10.881a.617.617,0,0,0-.585-.423h-1.724a.617.617,0,0,0-.581.824l5.008,14.011a.617.617,0,0,0,.581.409h1.642a.617.617,0,0,0,.581-.409l5.008-14.011a.617.617,0,0,0-.581-.824Z" transform="translate(-816.343 -294.346)" fill="#284180"/>
      <path id="Caminho_4440" data-name="Caminho 4440" d="M972.347,298.733c-5.483,0-6.117,4.444-6.117,7.786,0,4.215.721,8.115,5.953,8.115a14.834,14.834,0,0,0,4.855-.692.616.616,0,0,0,.409-.657l-.164-1.341a.616.616,0,0,0-.86-.489,12.23,12.23,0,0,1-3.829.577c-2.153,0-3.452-.763-3.61-4.543l8.647-.026a.586.586,0,0,0,.614-.581l.006-.063c.01-.1.022-.235.022-.3C978.272,302.669,977.568,298.733,972.347,298.733Zm-.082,2.547c2.448,0,3.082,1.2,3.262,3.72H969C969.155,302.532,969.8,301.28,972.265,301.28Z" transform="translate(-863.118 -293.26)" fill="#284180"/>
      <path id="Caminho_4441" data-name="Caminho 4441" d="M1032.579,279.915a1.458,1.458,0,0,0-1.55,1.561,1.552,1.552,0,1,0,3.1,0A1.458,1.458,0,0,0,1032.579,279.915Z" transform="translate(-912.869 -278.812)" fill="#284180"/>
      <rect id="Retângulo_238" data-name="Retângulo 238" width="2.711" height="15.244" rx="1.355" transform="translate(118.354 5.802)" fill="#284180"/>
      <path id="Caminho_4442" data-name="Caminho 4442" d="M1062.657,305.172c-2.379-.378-2.627-.939-2.627-2.128,0-.854.206-1.764,2.667-1.764a12.8,12.8,0,0,1,3.812.711.617.617,0,0,0,.8-.514l.164-1.341a.617.617,0,0,0-.351-.634,11.9,11.9,0,0,0-4.338-.77c-2.039,0-5.46.571-5.46,4.393,0,3.268,1.606,4.1,4.981,4.632,2.462.387,2.9.98,2.9,2.456,0,.948-.225,1.874-2.913,1.874a13.211,13.211,0,0,1-3.915-.709.617.617,0,0,0-.8.512l-.164,1.341a.617.617,0,0,0,.351.634,12.477,12.477,0,0,0,4.448.77c2.473,0,5.761-.475,5.761-4.585C1067.966,306.648,1066.255,305.767,1062.657,305.172Z" transform="translate(-933.054 -293.26)" fill="#284180"/>
    </g>
  </g>
</svg>
