<svg width="205" height="30" viewBox="0 0 205 30" fill="none" xmlns="http://www.w3.org/2000/svg">
<path d="M4.16903e-06 3.02037L0.784516 1.96128H5.41314L9.76718 23.9276H10.1987L14.8665 4.55017H20.4365L25.1044 23.9276H25.5359L29.8899 1.96128H34.5185L35.303 3.02037L30.0076 29.0269H21.0249L17.6515 14.7096L14.2781 29.0269H5.29546L4.16903e-06 3.02037ZM38.1478 22.6724V14.6704C38.1478 10.434 40.266 8.31582 44.5024 8.31582H49.9939C54.2303 8.31582 56.3485 10.434 56.3485 14.6704V22.6724C56.3485 26.9088 54.2303 29.0269 49.9939 29.0269H44.5024C40.266 29.0269 38.1478 26.9088 38.1478 22.6724ZM43.5609 23.0646C43.5609 23.9015 43.9793 24.3199 44.8162 24.3199H49.6801C50.5169 24.3199 50.9354 23.9015 50.9354 23.0646V14.2781C50.9354 13.4413 50.5169 13.0229 49.6801 13.0229H44.8162C43.9793 13.0229 43.5609 13.4413 43.5609 14.2781V23.0646ZM61.5183 29.0269V10.9832C62.4859 9.20494 64.3425 8.31582 67.0883 8.31582H71.3247L73.6782 10.081V13.0229H68.5397C67.7552 13.0229 67.2191 13.219 66.9314 13.6113V29.0269H61.5183ZM77.534 29.0269V-1.21332e-06H82.9471V16.1217L90.1254 8.31582H95.4601L95.8916 9.21801L88.7133 16.9455L96.4407 28.1247L96.0092 29.0269H90.7138L85.1437 20.8288L82.9471 23.2215V29.0269H77.534ZM107.985 3.02037L108.77 1.96128H113.398L117.752 23.9276H118.184L122.852 4.55017H128.422L133.09 23.9276H133.521L137.875 1.96128H142.504L143.288 3.02037L137.993 29.0269H129.01L125.637 14.7096L122.263 29.0269H113.281L107.985 3.02037ZM146.133 22.6724V14.6704C146.133 10.434 148.251 8.31582 152.488 8.31582H157.979C162.216 8.31582 164.334 10.434 164.334 14.6704V22.6724C164.334 26.9088 162.216 29.0269 157.979 29.0269H152.488C148.251 29.0269 146.133 26.9088 146.133 22.6724ZM151.546 23.0646C151.546 23.9015 151.965 24.3199 152.801 24.3199H157.665C158.502 24.3199 158.921 23.9015 158.921 23.0646V14.2781C158.921 13.4413 158.502 13.0229 157.665 13.0229H152.801C151.965 13.0229 151.546 13.4413 151.546 14.2781V23.0646ZM169.504 29.0269V10.9832C170.471 9.20494 172.328 8.31582 175.074 8.31582H179.31L181.664 10.081V13.0229H176.525C175.74 13.0229 175.204 13.219 174.917 13.6113V29.0269H169.504ZM185.519 29.0269V-1.21332e-06H190.932V16.1217L198.111 8.31582H203.445L203.877 9.21801L196.699 16.9455L204.426 28.1247L203.995 29.0269H198.699L193.129 20.8288L190.932 23.2215V29.0269H185.519Z" fill="white"/>
</svg>
