<svg width="16" height="16" viewBox="0 0 16 16" fill="none" xmlns="http://www.w3.org/2000/svg">
<g clip-path="url(#clip0_1_5)">
<path d="M0.28 1.37L0.48 1.1H1.66L2.77 6.7H2.88L4.07 1.76H5.49L6.68 6.7H6.79L7.9 1.1H9.08L9.28 1.37L7.93 8H5.64L4.78 4.35L3.92 8H1.63L0.28 1.37Z" fill="#8433C1"/>
<path d="M6.28 8.37L6.48 8.1H7.66L8.77 13.7H8.88L10.07 8.76H11.49L12.68 13.7H12.79L13.9 8.1H15.08L15.28 8.37L13.93 15H11.64L10.78 11.35L9.92 15H7.63L6.28 8.37Z" fill="#8433C1"/>
</g>
<defs>
<clipPath id="clip0_1_5">
<rect width="16" height="16" fill="white"/>
</clipPath>
</defs>
</svg>
