<svg width="48" height="48" viewBox="0 0 48 48" fill="none" xmlns="http://www.w3.org/2000/svg">
<rect width="48" height="48" fill="white"/>
<g clip-path="url(#clip0_14_32)">
<path d="M3.16998 30.1716C3.17181 30.4409 3.17547 30.6777 3.17729 30.8859C3.17912 30.5708 3.17729 30.3149 3.16998 30.1716Z" fill="#00AEFF"/>
<path d="M14.7922 25.7389C14.7172 25.2977 14.4943 24.8566 14.2694 24.5185C14.1214 24.3103 13.7632 23.7756 13.5219 23.5693C12.3486 22.5667 11.3342 22.2401 11.0235 22.179C11.0235 22.179 8.88146 21.6691 6.7047 21.5965C6.69373 20.7447 6.68642 19.7039 6.68642 18.7451C6.66083 15.4966 6.63707 15.2368 6.53655 15.1318L6.46162 15.0535H5.49295C4.97023 15.0535 4.22454 15.0802 3.85169 15.0802C3.17911 15.107 3.15535 15.107 3.106 15.1853C3.03107 15.2368 3.03107 15.2616 3.00548 15.9645C2.98172 16.7169 3.03107 19.4728 3.08041 21.5507C3.08041 21.6958 3.08224 21.9231 3.08407 22.2115C3.08407 22.2726 3.08407 22.3375 3.08407 22.4024C3.09686 23.1263 3.15169 25.4944 3.15169 27.6621C3.159 28.7182 3.16266 29.5375 3.16814 30.1716C3.17545 30.3148 3.17728 30.5707 3.17545 30.8858C3.17728 30.9412 3.17728 31.0004 3.17728 31.0596C3.1919 32.152 3.21566 32.3583 3.27598 32.4691C3.32532 32.5989 3.50078 32.7288 3.59947 32.7555C3.6342 32.7555 3.84438 32.767 4.12585 32.7746C4.13498 32.7746 4.14595 32.7746 4.15509 32.7746C4.27571 32.7785 4.40731 32.7804 4.54438 32.7804C5.01775 32.8071 6.21122 32.8071 7.20548 32.8071C8.87232 32.8071 9.0953 32.8071 9.59243 32.7288C9.89034 32.704 10.1407 32.6772 10.1645 32.6772C10.1645 32.6505 10.3637 32.6257 10.5885 32.5989C11.0345 32.5474 11.6065 32.4442 11.9794 32.3144C12.7507 32.0279 13.7961 31.3786 14.1689 30.8839C14.4924 30.4943 14.7903 29.7419 14.8653 29.0658C15.0389 27.8702 15.0133 26.648 14.7903 25.7389H14.7922ZM11.1862 28.1567C10.9376 28.701 10.3655 28.9359 8.97284 29.039C8.64934 29.0658 8.22715 29.0906 8.02793 29.1174C7.82872 29.1174 7.43211 29.1441 7.15796 29.1441H6.76135V26.7473C6.76135 26.117 6.75587 25.4104 6.74856 24.7706C7.22558 24.7362 8.70235 24.8107 9.42062 24.9081C10.0914 25.0113 10.6397 25.3226 10.9376 25.7905C11.1606 26.1285 11.2611 26.4933 11.3104 27.1674C11.3598 27.6621 11.336 27.897 11.1862 28.1567Z" fill="#00AEFF"/>
<path d="M21.3663 32.6276C21.3663 32.8281 21.1305 32.9809 20.9405 32.979C20.6298 32.9771 20.3556 32.9714 20.2258 32.9618C19.8548 32.9217 19.5149 32.8472 19.1201 32.7307C19.0141 32.6983 18.9008 32.662 18.7838 32.6238C18.1368 32.3889 17.8882 32.2858 17.4898 31.9993C16.7441 31.4798 16.247 30.7522 15.9491 29.7648C15.8486 29.4268 15.7243 28.7526 15.6749 28.363C15.6493 28.1606 15.6274 27.8798 15.6128 27.4539C15.611 27.3756 15.611 27.2973 15.6091 27.2209C15.6 26.1591 15.5854 25.2137 15.5689 24.7706C15.5689 24.0946 15.5433 22.4311 15.5433 21.1057V18.6898L15.536 18.6115C15.1924 18.6344 15.3807 18.6172 14.635 18.644C14.3864 18.6605 14.2372 18.6427 14.1872 18.5905C14.0885 18.5141 14.0629 18.3307 14.1123 17.9163C14.1123 17.7597 14.1634 17.2918 14.1872 16.9022C14.2128 16.5126 14.2621 15.9664 14.3115 15.7067C14.3608 15.2903 14.3864 15.2139 14.4358 15.1605L14.5107 15.0841L15.207 15.1089C15.5123 15.1184 15.6896 15.1242 15.7828 15.1261C15.6 15.1165 15.1979 15.0917 15.865 15.0783C17.5556 15.0249 18.3543 15.0783 18.6778 15.0783C18.9757 15.1032 19.0506 15.1547 19.1 15.2846C19.1 15.3381 19.1256 15.8824 19.1256 16.5852C19.1256 17.288 19.1256 17.8055 19.1493 17.8055C19.1493 17.8323 19.1749 19.4957 19.1749 21.522C19.1987 23.5216 19.2243 25.6797 19.2243 26.3023C19.2352 26.7893 19.248 27.3126 19.2572 27.8378C19.2846 27.9428 19.3175 28.046 19.3559 28.1548C19.429 28.4394 19.5039 28.5444 19.7525 28.8042C20.1107 29.1307 20.5512 29.3313 21.1068 29.3695C21.2091 29.3752 21.2877 29.4669 21.2877 29.5719L21.3663 32.6276Z" fill="#00AEFF"/>
<path d="M3.15353 27.6621C3.15353 25.4944 3.0987 23.1262 3.08591 22.4024C3.09505 23.3764 3.11332 24.8947 3.12977 26.3328C3.12977 28.3591 3.15536 30.0226 3.15536 30.0474C3.16084 30.0474 3.16632 30.0913 3.16998 30.1716C3.1645 29.5375 3.16084 28.7182 3.15353 27.6621ZM3.60131 32.7555C3.50262 32.7288 3.32716 32.5989 3.27781 32.4691C3.2175 32.3583 3.19374 32.152 3.17912 31.0596V31.2697C3.17912 31.9706 3.20471 32.5168 3.20471 32.5684C3.25405 32.6982 3.32899 32.7498 3.6269 32.7765C3.71097 32.7765 3.8846 32.7765 4.12768 32.7765C3.84622 32.7689 3.63604 32.7574 3.60131 32.7574V32.7555Z" fill="#00AEFF"/>
<path d="M31.7896 15.1986C31.8389 15.2502 31.8389 15.4316 31.8389 18.8368C31.8133 25.5154 31.7896 24.4211 31.7146 25.2003C31.616 26.0846 31.3418 26.9669 31.0183 27.5647C30.6948 28.1109 30.3713 28.5005 29.8998 28.8385C29.4776 29.125 29.229 29.2281 28.6058 29.4611C28.0337 29.6425 27.6353 29.7476 27.1144 29.7992C26.7415 29.8259 25.3744 29.8259 25.0254 29.7992C24.552 29.7476 24.1298 29.6425 23.5833 29.4611C22.9363 29.2281 22.6878 29.1231 22.2893 28.8385C21.5436 28.319 21.0465 27.5914 20.7468 26.604C20.6481 26.266 20.5238 25.5899 20.4726 25.2003C20.3739 24.4211 20.3483 25.5154 20.3483 18.8368C20.3483 15.4335 20.3483 15.2502 20.3977 15.1986C20.4635 15.0942 20.9941 15.042 21.9896 15.042C23.5321 15.042 23.8301 15.042 23.905 15.1451C23.9543 15.1967 23.9543 15.275 23.9543 17.1982C23.9543 18.3154 23.9543 19.6676 23.9287 20.2386C23.8794 22.0052 23.8794 21.9766 23.9032 23.069C23.9287 24.1595 23.9781 24.4975 24.1517 24.9921C24.2267 25.2786 24.3016 25.3818 24.5502 25.6415C24.9486 26.0063 25.4457 26.2125 26.0927 26.2125C26.7397 26.2125 27.2368 26.0044 27.6097 25.6415C27.8582 25.3818 27.9332 25.2786 28.0319 24.9921C28.2055 24.4994 28.2311 24.1614 28.2804 23.069C28.306 21.9785 28.2804 22.0071 28.2311 20.2386C28.2311 19.6676 28.2055 18.3154 28.2055 17.1982C28.2055 15.275 28.2055 15.1967 28.2549 15.1451C28.3535 15.042 28.6277 15.042 30.1703 15.042C31.7128 15.042 31.6872 15.042 31.7859 15.1986H31.7896Z" fill="#00AEFF"/>
<path d="M17.3454 27.198H17.3399C17.3399 27.2801 17.3454 27.3584 17.3491 27.431C17.3472 27.3527 17.3472 27.2744 17.3454 27.198Z" fill="#00AEFF"/>
<path d="M43.8942 23.4013C42.7775 23.6018 36.5598 23.5254 36.5598 23.5254C36.7005 25.5785 37.6436 26.5181 39.9794 26.5181C41.3227 26.5181 42.8141 26.3061 43.8632 25.7064C44.0149 25.6205 44.1995 25.7351 44.1995 25.9165V28.5043C44.1995 28.5941 44.1519 28.6781 44.0752 28.7182C42.8415 29.3733 41.3848 29.6999 39.4493 29.6999C37.2634 29.6999 35.423 29.209 34.2313 27.8015C33.0982 26.4627 32.7399 24.7401 32.7399 22.4731C32.7399 20.1241 32.9666 18.3804 34.3702 16.7303C35.5984 15.2846 37.3603 15 39.2647 15C41.1692 15 42.3681 15.5367 43.4483 16.7609C44.5284 17.9851 45 19.4652 45 21.5641V22.2459C45 22.8837 45.0109 23.2008 43.8942 23.4013ZM41.5164 20.846C41.5164 18.8197 40.7324 17.8074 39.1642 17.8074C38.4953 17.8074 37.9141 18.0977 37.4261 18.6783C36.9363 19.2589 36.6402 19.9808 36.5342 20.8479H41.5183L41.5164 20.846Z" fill="#00AEFF"/>
<path d="M23.83 33.0001C23.7131 33.0001 23.6034 32.9753 23.501 32.9275C23.3987 32.8798 23.3091 32.8111 23.2342 32.727C23.1593 32.6411 23.099 32.5399 23.0569 32.4234C23.0131 32.3069 22.9911 32.1789 22.9911 32.0376C22.9911 31.8962 23.0131 31.7702 23.0569 31.6518C23.1008 31.5353 23.1593 31.4341 23.2342 31.3481C23.3091 31.2622 23.3987 31.1953 23.501 31.1476C23.6034 31.0999 23.7131 31.075 23.83 31.075C24.0347 31.075 24.2029 31.1381 24.3345 31.2603C24.4661 31.3825 24.5574 31.5429 24.6086 31.7377H24.4039C24.3637 31.6098 24.2924 31.499 24.1956 31.4054C24.0969 31.3118 23.9762 31.266 23.8319 31.266C23.7441 31.266 23.6619 31.2851 23.5815 31.3233C23.5029 31.3615 23.4334 31.415 23.3731 31.4837C23.3128 31.5525 23.2653 31.6327 23.2305 31.7282C23.1958 31.8237 23.1775 31.9249 23.1775 32.0357C23.1775 32.1464 23.1958 32.2496 23.2305 32.3431C23.2653 32.4367 23.3146 32.5188 23.3731 32.5876C23.4316 32.6564 23.5029 32.7098 23.5815 32.748C23.66 32.7862 23.7441 32.8053 23.8319 32.8053C23.9762 32.8053 24.0987 32.7595 24.1956 32.6659C24.2943 32.5723 24.3637 32.4635 24.4039 32.3336H24.6086C24.5574 32.5284 24.4661 32.6869 24.3345 32.8111C24.2029 32.9352 24.0347 32.9963 23.83 32.9963V33.0001Z" fill="#00AEFF"/>
<path d="M30.1757 33.0001C30.0587 33.0001 29.9491 32.9753 29.8467 32.9275C29.7444 32.8798 29.6566 32.8111 29.5799 32.727C29.5049 32.6411 29.4446 32.5399 29.4026 32.4234C29.3587 32.3069 29.3368 32.1789 29.3368 32.0376C29.3368 31.8962 29.3587 31.7702 29.4026 31.6518C29.4465 31.5353 29.5049 31.4341 29.5799 31.3481C29.6548 31.2622 29.7444 31.1953 29.8467 31.1476C29.9491 31.0999 30.0587 31.075 30.1757 31.075C30.2927 31.075 30.4023 31.0999 30.5047 31.1476C30.607 31.1953 30.6948 31.2641 30.7715 31.3481C30.8465 31.4341 30.9068 31.5353 30.9488 31.6518C30.9927 31.7683 31.0146 31.8962 31.0146 32.0376C31.0146 32.1789 30.9927 32.305 30.9488 32.4234C30.9049 32.5399 30.8465 32.6411 30.7715 32.727C30.6966 32.813 30.607 32.8798 30.5047 32.9275C30.4023 32.9753 30.2927 33.0001 30.1757 33.0001ZM30.1757 32.8072C30.2634 32.8072 30.3457 32.7881 30.4261 32.7499C30.5047 32.7117 30.5741 32.6583 30.6344 32.5895C30.6948 32.5208 30.7423 32.4405 30.777 32.3451C30.8117 32.2515 30.83 32.1483 30.83 32.0376C30.83 31.9268 30.8117 31.8237 30.777 31.7301C30.7423 31.6365 30.6929 31.5544 30.6344 31.4856C30.5741 31.4169 30.5047 31.3634 30.4261 31.3252C30.3475 31.287 30.2634 31.2679 30.1757 31.2679C30.088 31.2679 30.0057 31.287 29.9253 31.3252C29.8467 31.3634 29.7773 31.4169 29.7169 31.4856C29.6566 31.5544 29.6091 31.6346 29.5744 31.7301C29.5397 31.8237 29.5214 31.9268 29.5214 32.0376C29.5214 32.1483 29.5397 32.2515 29.5744 32.3451C29.6091 32.4386 29.6585 32.5208 29.7169 32.5895C29.7773 32.6583 29.8467 32.7117 29.9253 32.7499C30.0039 32.7881 30.088 32.8072 30.1757 32.8072Z" fill="#00AEFF"/>
<path d="M36.6036 33.0001C36.4867 33.0001 36.377 32.9753 36.2747 32.9275C36.1723 32.8798 36.0846 32.811 36.0078 32.727C35.9329 32.6411 35.8726 32.5398 35.8305 32.4233C35.7867 32.3068 35.7647 32.1789 35.7647 32.0376C35.7647 31.8962 35.7867 31.7702 35.8305 31.6518C35.8744 31.5353 35.9329 31.4341 36.0078 31.3481C36.0828 31.2622 36.1723 31.1953 36.2747 31.1476C36.377 31.0998 36.4867 31.075 36.6036 31.075C36.7078 31.075 36.7974 31.0922 36.8723 31.1285C36.9472 31.1648 37.0112 31.203 37.0624 31.2469C37.1227 31.2985 37.1739 31.3558 37.2177 31.4188H37.2378V30.2843H37.4224V32.9791H37.3L37.2378 32.6582H37.2177C37.1739 32.7213 37.1227 32.7786 37.0624 32.8301C37.0112 32.8721 36.9472 32.9123 36.8723 32.9485C36.7974 32.9848 36.7078 33.002 36.6036 33.002V33.0001ZM36.6036 32.8072C36.6914 32.8072 36.7736 32.7881 36.854 32.7499C36.9326 32.7117 37.0021 32.6582 37.0624 32.5895C37.1227 32.5207 37.1702 32.4405 37.2068 32.345C37.2415 32.2515 37.2598 32.1483 37.2598 32.0376C37.2598 31.9268 37.2415 31.8237 37.2068 31.7301C37.1702 31.6365 37.1227 31.5544 37.0624 31.4856C37.0021 31.4169 36.9326 31.3634 36.854 31.3252C36.7754 31.287 36.6914 31.2679 36.6036 31.2679C36.5159 31.2679 36.4337 31.287 36.3533 31.3252C36.2747 31.3634 36.2052 31.4169 36.1449 31.4856C36.0846 31.5544 36.0371 31.6346 36.0023 31.7301C35.9676 31.8237 35.9493 31.9268 35.9493 32.0376C35.9493 32.1483 35.9676 32.2515 36.0023 32.345C36.0371 32.4386 36.0864 32.5207 36.1449 32.5895C36.2052 32.6582 36.2747 32.7117 36.3533 32.7499C36.4318 32.7881 36.5159 32.8072 36.6036 32.8072Z" fill="#00AEFF"/>
<path d="M43.154 33.0001C43.0316 33.0001 42.9164 32.9753 42.8123 32.9275C42.7081 32.8798 42.6167 32.8111 42.5399 32.727C42.4632 32.6411 42.4029 32.5399 42.359 32.4234C42.3151 32.3069 42.2932 32.1789 42.2932 32.0376C42.2932 31.8962 42.3151 31.7702 42.359 31.6518C42.4029 31.5353 42.4614 31.4341 42.5363 31.3481C42.6112 31.2622 42.7008 31.1953 42.8031 31.1476C42.9055 31.0999 43.0151 31.075 43.1321 31.075C43.2491 31.075 43.3496 31.0979 43.4501 31.1438C43.5488 31.1896 43.6366 31.2526 43.7097 31.3329C43.7828 31.4131 43.8413 31.5086 43.8851 31.6174C43.929 31.7282 43.9509 31.8466 43.9509 31.9746C43.9509 31.9975 43.9509 32.0166 43.9473 32.0338C43.9436 32.0509 43.9418 32.0662 43.9399 32.0815C43.9363 32.0968 43.9345 32.1101 43.9326 32.1235H42.4796C42.4906 32.2266 42.5144 32.3202 42.5509 32.4043C42.5875 32.4883 42.635 32.5609 42.6935 32.6201C42.752 32.6793 42.8196 32.727 42.8982 32.7595C42.9768 32.792 43.0608 32.8091 43.154 32.8091C43.2198 32.8091 43.2802 32.7996 43.335 32.7805C43.3898 32.7614 43.4373 32.7385 43.4794 32.7079C43.5214 32.6774 43.558 32.6449 43.5872 32.6105C43.6165 32.5761 43.6439 32.5418 43.6658 32.5093H43.8906C43.8668 32.5685 43.8321 32.6277 43.7883 32.6869C43.7444 32.7461 43.6914 32.7977 43.6311 32.8454C43.5689 32.8932 43.4995 32.9314 43.4209 32.9581C43.3423 32.9868 43.2527 33.0001 43.154 33.0001ZM43.7681 31.9306C43.7572 31.8332 43.7334 31.7454 43.6969 31.6633C43.6603 31.583 43.6128 31.5124 43.558 31.4532C43.5013 31.394 43.4373 31.35 43.3661 31.3157C43.293 31.2832 43.2162 31.266 43.1339 31.266C43.0517 31.266 42.9749 31.2832 42.9018 31.3157C42.8287 31.3481 42.7648 31.394 42.7081 31.4532C42.6514 31.5124 42.6021 31.5811 42.5637 31.6633C42.5235 31.7454 42.4961 31.8332 42.4796 31.9306H43.77H43.7681Z" fill="#00AEFF"/>
</g>
<defs>
<clipPath id="clip0_14_32">
<rect width="42" height="18" fill="white" transform="translate(3 15)"/>
</clipPath>
</defs>
</svg>
